<svg width="332" height="332" viewBox="0 0 332 332" fill="none" xmlns="http://www.w3.org/2000/svg">
<circle cx="166" cy="166" r="156" fill="url(#paint0_linear_4_9)" stroke="#301D66" stroke-width="20"/>
<path d="M134.827 235C198.231 235 232.904 182.298 232.904 136.597C232.904 135.1 232.865 133.608 232.808 132.127C239.539 127.245 245.385 121.153 250 114.22C243.827 116.972 237.173 118.828 230.212 119.663C237.327 115.384 242.789 108.607 245.365 100.532C238.692 104.495 231.327 107.376 223.481 108.927C217.173 102.205 208.231 98 198.308 98C179.269 98 163.846 113.489 163.846 132.582C163.846 135.297 164.135 137.936 164.731 140.468C136.077 139.023 110.692 125.261 93.6923 104.335C90.7307 109.442 89.0192 115.384 89.0192 121.716C89.0192 133.717 95.0961 144.308 104.365 150.506C98.7115 150.33 93.3845 148.771 88.7499 146.178C88.7307 146.322 88.7308 146.467 88.7308 146.62C88.7308 163.37 100.615 177.354 116.385 180.526C113.5 181.315 110.442 181.742 107.308 181.742C105.077 181.742 102.923 181.522 100.827 181.118C105.211 194.859 117.942 204.858 133.019 205.14C121.231 214.415 106.365 219.943 90.2116 219.943C87.4423 219.943 84.6923 219.785 82 219.465C97.25 229.273 115.365 235 134.827 235Z" fill="white"/>
<defs>
<linearGradient id="paint0_linear_4_9" x1="166" y1="0" x2="166" y2="332" gradientUnits="userSpaceOnUse">
<stop stop-color="#C537F5"/>
<stop offset="1" stop-color="#23DDB1"/>
</linearGradient>
</defs>
</svg>
