<svg width="332" height="332" viewBox="0 0 332 332" fill="none" xmlns="http://www.w3.org/2000/svg">
<circle cx="166" cy="166" r="156" fill="url(#paint0_linear_4_5)" stroke="#301D66" stroke-width="20"/>
<path d="M234.697 105.765C234.145 104.128 233.486 103.697 232.458 103.287C230.208 102.447 226.396 103.718 226.396 103.718C226.396 103.718 91.464 152.594 83.7555 158.003C82.0957 159.167 81.5396 159.856 81.2637 160.654C79.9311 164.49 84.0827 166.192 84.0827 166.192L118.861 177.614C118.861 177.614 120.157 177.808 120.619 177.506C128.531 172.463 200.22 126.863 204.355 125.333C205.007 125.139 205.491 125.355 205.362 125.807C203.707 131.669 141.441 187.419 141.441 187.419C141.441 187.419 141.204 187.721 141.054 188.066L140.973 188.023L137.728 222.783C137.728 222.783 136.368 233.429 146.936 222.783C154.392 215.262 161.607 208.969 165.217 205.931C177.176 214.249 190.046 223.451 195.6 228.257C198.389 230.67 200.723 231.058 202.644 230.994C207.916 230.8 209.388 224.96 209.388 224.96C209.388 224.96 233.976 125.247 234.798 111.886C234.879 110.571 234.99 109.752 234.999 108.847C235.014 107.597 234.898 106.347 234.697 105.765Z" fill="white"/>
<defs>
<linearGradient id="paint0_linear_4_5" x1="166" y1="0" x2="166" y2="332" gradientUnits="userSpaceOnUse">
<stop stop-color="#C537F5"/>
<stop offset="1" stop-color="#23DDB1"/>
</linearGradient>
</defs>
</svg>
